<?xml version="1.0" encoding="UTF-8" standalone="no"?><svg xmlns="http://www.w3.org/2000/svg" xmlns:xlink="http://www.w3.org/1999/xlink" contentScriptType="application/ecmascript" contentStyleType="text/css" height="65px" preserveAspectRatio="none" style="width:788px;height:65px;background:#00000000;" version="1.1" viewBox="0 0 788 65" width="788px" zoomAndPan="magnify"><defs><filter height="300%" id="fomsddow9yqc4" width="300%" x="-1" y="-1"><feGaussianBlur result="blurOut" stdDeviation="2.0"/><feColorMatrix in="blurOut" result="blurOut2" type="matrix" values="0 0 0 0 0 0 0 0 0 0 0 0 0 0 0 0 0 0 .4 0"/><feOffset dx="4.0" dy="4.0" in="blurOut2" result="blurOut3"/><feBlend in="SourceGraphic" in2="blurOut3" mode="normal"/></filter></defs><g><!--MD5=[4541fb81c80c07473fe4b07432ef0971]
entity app--><rect fill="#FFFFFF" filter="url(#fomsddow9yqc4)" height="36.2969" style="stroke:#000000;stroke-width:1.5;" width="95" x="7" y="12.6948"/><text fill="#000000" font-family="sans-serif" font-size="14" lengthAdjust="spacing" textLength="75" x="17" y="35.6899">Application</text><!--MD5=[ab93d03eb5d1bca5f8dca22e95b1f183]
entity ebms--><rect fill="#FFFFFF" filter="url(#fomsddow9yqc4)" height="36.2969" style="stroke:#000000;stroke-width:1.5;" width="117" x="230" y="12.6948"/><text fill="#000000" font-family="sans-serif" font-size="14" lengthAdjust="spacing" textLength="97" x="240" y="35.6899">EbMS Adapter</text><!--MD5=[e937783d151d78c9e87fd4c0d99f7485]
entity proxy--><rect fill="#FFFFFF" filter="url(#fomsddow9yqc4)" height="36.2969" style="stroke:#000000;stroke-width:1.5;" width="118" x="474.5" y="12.6948"/><text fill="#000000" font-family="sans-serif" font-size="14" lengthAdjust="spacing" textLength="98" x="484.5" y="35.6899">Reverse Proxy</text><!--MD5=[3a4d72efb1b53e1acbdd1189cccbc328]
entity cloud--><path d="M719.5949,16.6973 C721.9559,10.5982 727.6645,9.3993 731.7344,14.9106 C735.3758,7.0158 739.616,6 745.5803,12.7081 C749.8929,7.6874 755.6148,8.2718 758.0918,14.712 C762.6555,9.362 767.9581,11.0864 770.5613,16.9015 C778.2778,19.0977 781.4459,26.0719 774.3015,31.9594 C780.2663,37.2716 780.0835,43.7033 772.105,46.9761 C769.5481,55.1242 764.4278,55.8879 758.2131,50.8214 C756.4015,57.875 751.2965,57.9686 746.6711,53.6862 C741.5942,58.8171 734.6217,58.6819 732.3737,50.6202 C727.5728,56.694 721.9492,53.4917 719.9313,47.7015 C711.4312,45.1747 710.7998,39.0275 716.0049,32.872 C709.3642,26.987 711.9472,19.4109 719.5949,16.6973 " fill="#FFFFFF" filter="url(#fomsddow9yqc4)" style="stroke:#000000;stroke-width:1.5;"/><text fill="#000000" font-family="sans-serif" font-size="14" lengthAdjust="spacing" textLength="38" x="725.5" y="35.6899">cloud</text><!--MD5=[08fd1994e0aa798ec301ef10a82dacc4]
link app to ebms--><path d="M107.41,30.6948 C142.09,30.6948 187.63,30.6948 224.37,30.6948 " fill="none" id="app-ebms" style="stroke:#000000;stroke-width:1.0;"/><polygon fill="#000000" points="229.72,30.6948,220.72,26.6948,224.72,30.6948,220.72,34.6948,229.72,30.6948" style="stroke:#000000;stroke-width:1.0;"/><polygon fill="#000000" points="102.14,30.6948,111.14,34.6948,107.14,30.6948,111.14,26.6948,102.14,30.6948" style="stroke:#000000;stroke-width:1.0;"/><text fill="#000000" font-family="sans-serif" font-size="13" lengthAdjust="spacing" textLength="91" x="120.5" y="23.7617">SOAP/HTTP(S)</text><!--MD5=[d06aa6fb8107f4d429d5f32be91b7c45]
link ebms to proxy--><path d="M352.21,30.6948 C388.21,30.6948 433.09,30.6948 469.19,30.6948 " fill="none" id="ebms-proxy" style="stroke:#000000;stroke-width:1.0;"/><polygon fill="#000000" points="474.45,30.6948,465.45,26.6948,469.45,30.6948,465.45,34.6948,474.45,30.6948" style="stroke:#000000;stroke-width:1.0;"/><polygon fill="#000000" points="347.18,30.6948,356.18,34.6948,352.18,30.6948,356.18,26.6948,347.18,30.6948" style="stroke:#000000;stroke-width:1.0;"/><text fill="#000000" font-family="sans-serif" font-size="13" lengthAdjust="spacing" textLength="91" x="365.25" y="23.7617">EbMS/HTTP(S)</text><!--MD5=[5b198c801057749b547d818985f3946c]
link proxy to cloud--><path d="M597.97,30.6948 C633.04,30.6948 675.27,30.6948 705.37,30.6948 " fill="none" id="proxy-cloud" style="stroke:#000000;stroke-width:1.0;"/><polygon fill="#000000" points="710.47,30.6948,701.47,26.6948,705.47,30.6948,701.47,34.6948,710.47,30.6948" style="stroke:#000000;stroke-width:1.0;"/><polygon fill="#000000" points="592.56,30.6948,601.56,34.6948,597.56,30.6948,601.56,26.6948,592.56,30.6948" style="stroke:#000000;stroke-width:1.0;"/><text fill="#000000" font-family="sans-serif" font-size="13" lengthAdjust="spacing" textLength="81" x="611" y="23.7617">EbMS/HTTPS</text><!--MD5=[5026ba115c21a570236fb51d9809527e]
@startuml
skinparam BackgroundColor transparent
skinparam componentStyle rectangle
skinparam compnentBackgroundColor #White
skinparam ArrowColor #Black

[Application] as app #White
[EbMS Adapter] as ebms #White
[Reverse Proxy] as proxy #White
cloud cloud as cloud #White

app <-ri-> ebms : SOAP/HTTP(S)
ebms <-ri-> proxy : EbMS/HTTP(S)
proxy <-ri-> cloud : EbMS/HTTPS

@enduml

PlantUML version 1.2021.00(Sun Jan 10 11:25:05 CET 2021)
(GPL source distribution)
Java Runtime: OpenJDK Runtime Environment
JVM: OpenJDK 64-Bit Server VM
Default Encoding: UTF-8
Language: en
Country: US
--></g></svg>