<?xml version="1.0" encoding="UTF-8" standalone="no"?><svg xmlns="http://www.w3.org/2000/svg" xmlns:xlink="http://www.w3.org/1999/xlink" contentScriptType="application/ecmascript" contentStyleType="text/css" height="291px" preserveAspectRatio="none" style="width:513px;height:291px;background:#00000000;" version="1.1" viewBox="0 0 513 291" width="513px" zoomAndPan="magnify"><defs><filter height="300%" id="f18ln4wlqdwzbc" width="300%" x="-1" y="-1"><feGaussianBlur result="blurOut" stdDeviation="2.0"/><feColorMatrix in="blurOut" result="blurOut2" type="matrix" values="0 0 0 0 0 0 0 0 0 0 0 0 0 0 0 0 0 0 .4 0"/><feOffset dx="4.0" dy="4.0" in="blurOut2" result="blurOut3"/><feBlend in="SourceGraphic" in2="blurOut3" mode="normal"/></filter></defs><g><!--MD5=[4541fb81c80c07473fe4b07432ef0971]
entity app--><rect fill="#FFFFFF" filter="url(#f18ln4wlqdwzbc)" height="36.2969" style="stroke:#000000;stroke-width:1.5;" width="95" x="208" y="7"/><text fill="#000000" font-family="sans-serif" font-size="14" lengthAdjust="spacing" textLength="75" x="218" y="29.9951">Application</text><!--MD5=[c36dc000b71fcb702ca3fc08dad936e1]
entity ebms1--><rect fill="#FFFFFF" filter="url(#f18ln4wlqdwzbc)" height="36.2969" style="stroke:#000000;stroke-width:1.5;" width="126" x="112.5" y="120"/><text fill="#000000" font-family="sans-serif" font-size="14" lengthAdjust="spacing" textLength="106" x="122.5" y="142.9951">EbMS Adapter1</text><!--MD5=[319b23b0c074ca389e1a0491f7477ff8]
entity ebms2--><rect fill="#FFFFFF" filter="url(#f18ln4wlqdwzbc)" height="36.2969" style="stroke:#000000;stroke-width:1.5;" width="126" x="273.5" y="120"/><text fill="#000000" font-family="sans-serif" font-size="14" lengthAdjust="spacing" textLength="106" x="283.5" y="142.9951">EbMS Adapter2</text><!--MD5=[3a4d72efb1b53e1acbdd1189cccbc328]
entity cloud--><path d="M230.5949,242.0025 C232.9559,235.9034 238.6645,234.7045 242.7344,240.2158 C246.3758,232.321 250.616,231.3052 256.5803,238.0133 C260.8929,232.9926 266.6148,233.577 269.0918,240.0172 C273.6555,234.6672 278.9581,236.3916 281.5613,242.2067 C289.2778,244.4029 292.4459,251.3771 285.3015,257.2646 C291.2663,262.5768 291.0835,269.0086 283.105,272.2813 C280.5481,280.4294 275.4278,281.1932 269.2131,276.1266 C267.4015,283.1802 262.2965,283.2739 257.6711,278.9915 C252.5942,284.1223 245.6217,283.9871 243.3737,275.9255 C238.5728,281.9992 232.9492,278.7969 230.9313,273.0067 C222.4312,270.4799 221.7998,264.3327 227.0049,258.1772 C220.3642,252.2922 222.9472,244.7161 230.5949,242.0025 " fill="#FFFFFF" filter="url(#f18ln4wlqdwzbc)" style="stroke:#000000;stroke-width:1.5;"/><text fill="#000000" font-family="sans-serif" font-size="14" lengthAdjust="spacing" textLength="38" x="236.5" y="260.9951">cloud</text><!--MD5=[2138b6dbb06b155506e384947d97876f]
entity file1--><polygon fill="#FFFFFF" filter="url(#f18ln4wlqdwzbc)" points="16,120,16,156.2969,77,156.2969,77,130,67,120,16,120" style="stroke:#000000;stroke-width:1.5;"/><path d="M67,120 L67,130 L77,130 " fill="#FFFFFF" style="stroke:#000000;stroke-width:1.5;"/><text fill="#000000" font-family="sans-serif" font-size="14" lengthAdjust="spacing" textLength="41" x="26" y="142.9951">CPA 1</text><!--MD5=[f0995f22e4683d439f802f70f6fc16d3]
entity file2--><polygon fill="#FFFFFF" filter="url(#f18ln4wlqdwzbc)" points="435,120,435,156.2969,496,156.2969,496,130,486,120,435,120" style="stroke:#000000;stroke-width:1.5;"/><path d="M486,120 L486,130 L496,130 " fill="#FFFFFF" style="stroke:#000000;stroke-width:1.5;"/><text fill="#000000" font-family="sans-serif" font-size="14" lengthAdjust="spacing" textLength="41" x="445" y="142.9951">CPA 2</text><!--MD5=[9d9fb6f14c2440a74c9fc625f80ed440]
link app to ebms1--><path d="M220.91,46.13 C210.83,53.46 200.62,62.55 193.5,73 C185.01,85.46 180.5,101.87 178.11,114.96 " fill="none" id="app-ebms1" style="stroke:#000000;stroke-width:1.0;"/><polygon fill="#000000" points="177.27,119.98,182.6836,111.7524,178.085,115.0469,174.7906,110.4483,177.27,119.98" style="stroke:#000000;stroke-width:1.0;"/><polygon fill="#000000" points="225.21,43.09,215.5466,44.9924,221.1192,45.965,220.1466,51.5376,225.21,43.09" style="stroke:#000000;stroke-width:1.0;"/><text fill="#000000" font-family="sans-serif" font-size="13" lengthAdjust="spacing" textLength="91" x="194.5" y="86.0669">SOAP/HTTP(S)</text><!--MD5=[d6ee4a48a4ea33ed6ce394f39381586b]
link app to ebms2--><path d="M271.74,47.65 C277.67,55.6 284.42,64.69 290.5,73 C300.88,87.19 312.43,103.25 321.36,115.74 " fill="none" id="app-ebms2" style="stroke:#000000;stroke-width:1.0;"/><polygon fill="#000000" points="324.28,119.83,322.2781,110.1867,321.363,115.7691,315.7807,114.8539,324.28,119.83" style="stroke:#000000;stroke-width:1.0;"/><polygon fill="#000000" points="268.54,43.36,270.718,52.965,271.5308,47.3669,277.129,48.1797,268.54,43.36" style="stroke:#000000;stroke-width:1.0;"/><text fill="#000000" font-family="sans-serif" font-size="13" lengthAdjust="spacing" textLength="91" x="303.5" y="86.0669">SOAP/HTTP(S)</text><!--MD5=[fed2dae9038abd39df3e99b88202d428]
link ebms1 to cloud--><path d="M181.43,160.97 C185.55,173.89 191.85,190.16 200.5,203 C206.81,212.37 215.08,221.3 223.29,229.04 " fill="none" id="ebms1-cloud" style="stroke:#000000;stroke-width:1.0;"/><polygon fill="#000000" points="227.3,232.75,223.3955,223.7082,223.6243,229.3604,217.9721,229.5892,227.3,232.75" style="stroke:#000000;stroke-width:1.0;"/><polygon fill="#000000" points="179.91,156.02,178.7398,165.7991,181.3834,160.798,186.3846,163.4416,179.91,156.02" style="stroke:#000000;stroke-width:1.0;"/><text fill="#000000" font-family="sans-serif" font-size="13" lengthAdjust="spacing" textLength="81" x="201.5" y="199.0669">EbMS/HTTPS</text><!--MD5=[6b7d12e7583a47120778442d28e9e6bf]
link ebms2 to cloud--><path d="M321.6,160.33 C308.22,179.49 288.52,207.71 274.11,228.35 " fill="none" id="ebms2-cloud" style="stroke:#000000;stroke-width:1.0;"/><polygon fill="#000000" points="271.11,232.64,279.5374,227.543,273.9687,228.5378,272.9739,222.9691,271.11,232.64" style="stroke:#000000;stroke-width:1.0;"/><polygon fill="#000000" points="324.55,156.12,316.1107,161.1973,321.6817,160.2155,322.6635,165.7865,324.55,156.12" style="stroke:#000000;stroke-width:1.0;"/><text fill="#000000" font-family="sans-serif" font-size="13" lengthAdjust="spacing" textLength="81" x="304.5" y="199.0669">EbMS/HTTPS</text><!--MD5=[6dc8ac51e2da93133453e5ff5214393b]
reverse link file1 to ebms1--><path d="M82.42,138 C92.34,138 102.25,138 112.17,138 " fill="none" id="file1-backto-ebms1" style="stroke:#000000;stroke-width:1.0;"/><polygon fill="#000000" points="77.24,138,86.24,142,82.24,138,86.24,134,77.24,138" style="stroke:#000000;stroke-width:1.0;"/><!--MD5=[598b1be99f240f5df78dd0757ac00bc1]
link ebms2 to file2--><path d="M399.74,138 C409.73,138 419.72,138 429.71,138 " fill="none" id="ebms2-to-file2" style="stroke:#000000;stroke-width:1.0;"/><polygon fill="#000000" points="434.93,138,425.93,134,429.93,138,425.93,142,434.93,138" style="stroke:#000000;stroke-width:1.0;"/><!--MD5=[a0ff49ca72120f9199caec3a2ef81110]
@startuml
skinparam BackgroundColor transparent
skinparam componentStyle rectangle
skinparam compnentBackgroundColor #White
skinparam ArrowColor #Black

[Application] as app #White
[EbMS Adapter1] as ebms1 #White
[EbMS Adapter2] as ebms2 #White
cloud cloud as cloud #White
file "CPA 1" as file1 #White
file "CPA 2" as file2 #White

app <- -> ebms1 : SOAP/HTTP(S)
app <- -> ebms2 : SOAP/HTTP(S)
ebms1 <- -> cloud : EbMS/HTTPS
ebms2 <- -> cloud : EbMS/HTTPS
ebms1 -le-> file1
ebms2 -ri-> file2

@enduml

PlantUML version 1.2021.00(Sun Jan 10 11:25:05 CET 2021)
(GPL source distribution)
Java Runtime: OpenJDK Runtime Environment
JVM: OpenJDK 64-Bit Server VM
Default Encoding: UTF-8
Language: en
Country: US
--></g></svg>