<?xml version="1.0" encoding="UTF-8" standalone="no"?><svg xmlns="http://www.w3.org/2000/svg" xmlns:xlink="http://www.w3.org/1999/xlink" contentScriptType="application/ecmascript" contentStyleType="text/css" height="115px" preserveAspectRatio="none" style="width:788px;height:115px;background:#00000000;" version="1.1" viewBox="0 0 788 115" width="788px" zoomAndPan="magnify"><defs><filter height="300%" id="f1djlucxmr33dr" width="300%" x="-1" y="-1"><feGaussianBlur result="blurOut" stdDeviation="2.0"/><feColorMatrix in="blurOut" result="blurOut2" type="matrix" values="0 0 0 0 0 0 0 0 0 0 0 0 0 0 0 0 0 0 .4 0"/><feOffset dx="4.0" dy="4.0" in="blurOut2" result="blurOut3"/><feBlend in="SourceGraphic" in2="blurOut3" mode="normal"/></filter></defs><g><!--MD5=[4541fb81c80c07473fe4b07432ef0971]
entity app--><rect fill="#FFFFFF" filter="url(#f1djlucxmr33dr)" height="36.2969" style="stroke:#000000;stroke-width:1.5;" width="95" x="7" y="62.5"/><text fill="#000000" font-family="sans-serif" font-size="14" lengthAdjust="spacing" textLength="75" x="17" y="85.4951">Application</text><!--MD5=[ab93d03eb5d1bca5f8dca22e95b1f183]
entity ebms--><rect fill="#FFFFFF" filter="url(#f1djlucxmr33dr)" height="36.2969" style="stroke:#000000;stroke-width:1.5;" width="117" x="230" y="62.5"/><text fill="#000000" font-family="sans-serif" font-size="14" lengthAdjust="spacing" textLength="97" x="240" y="85.4951">EbMS Adapter</text><!--MD5=[e937783d151d78c9e87fd4c0d99f7485]
entity proxy--><rect fill="#FFFFFF" filter="url(#f1djlucxmr33dr)" height="36.2969" style="stroke:#000000;stroke-width:1.5;" width="118" x="474.5" y="62.5"/><text fill="#000000" font-family="sans-serif" font-size="14" lengthAdjust="spacing" textLength="98" x="484.5" y="85.4951">Reverse Proxy</text><!--MD5=[3a4d72efb1b53e1acbdd1189cccbc328]
entity cloud--><path d="M719.5949,66.5025 C721.9559,60.4034 727.6645,59.2045 731.7344,64.7158 C735.3758,56.821 739.616,55.8052 745.5803,62.5133 C749.8929,57.4926 755.6148,58.077 758.0918,64.5172 C762.6555,59.1672 767.9581,60.8916 770.5613,66.7067 C778.2778,68.9029 781.4459,75.8771 774.3015,81.7646 C780.2663,87.0768 780.0835,93.5086 772.105,96.7813 C769.5481,104.9294 764.4278,105.6932 758.2131,100.6266 C756.4015,107.6802 751.2965,107.7739 746.6711,103.4915 C741.5942,108.6223 734.6217,108.4871 732.3737,100.4255 C727.5728,106.4992 721.9492,103.2969 719.9313,97.5067 C711.4312,94.9799 710.7998,88.8327 716.0049,82.6772 C709.3642,76.7922 711.9472,69.2161 719.5949,66.5025 " fill="#FFFFFF" filter="url(#f1djlucxmr33dr)" style="stroke:#000000;stroke-width:1.5;"/><text fill="#000000" font-family="sans-serif" font-size="14" lengthAdjust="spacing" textLength="38" x="725.5" y="85.4951">cloud</text><!--MD5=[08fd1994e0aa798ec301ef10a82dacc4]
link app to ebms--><path d="M107.41,80.5 C142.09,80.5 187.63,80.5 224.37,80.5 " fill="none" id="app-ebms" style="stroke:#000000;stroke-width:1.0;"/><polygon fill="#000000" points="229.72,80.5,220.72,76.5,224.72,80.5,220.72,84.5,229.72,80.5" style="stroke:#000000;stroke-width:1.0;"/><polygon fill="#000000" points="102.14,80.5,111.14,84.5,107.14,80.5,111.14,76.5,102.14,80.5" style="stroke:#000000;stroke-width:1.0;"/><text fill="#000000" font-family="sans-serif" font-size="13" lengthAdjust="spacing" textLength="91" x="120.5" y="73.5669">SOAP/HTTP(S)</text><!--MD5=[e7e7a3792048e35713d3a220afdfab5a]
reverse link ebms to proxy--><path d="M352.21,80.5 C389.98,80.5 437.52,80.5 474.45,80.5 " fill="none" id="ebms-backto-proxy" style="stroke:#000000;stroke-width:1.0;"/><polygon fill="#000000" points="347.18,80.5,356.18,84.5,352.18,80.5,356.18,76.5,347.18,80.5" style="stroke:#000000;stroke-width:1.0;"/><text fill="#000000" font-family="sans-serif" font-size="13" lengthAdjust="spacing" textLength="91" x="365.25" y="73.5669">EbMS/HTTP(S)</text><!--MD5=[87aad47e8212903704820f9a010bf330]
reverse link proxy to cloud--><path d="M597.97,80.5 C635.07,80.5 680.19,80.5 710.47,80.5 " fill="none" id="proxy-backto-cloud" style="stroke:#000000;stroke-width:1.0;"/><polygon fill="#000000" points="592.56,80.5,601.56,84.5,597.56,80.5,601.56,76.5,592.56,80.5" style="stroke:#000000;stroke-width:1.0;"/><text fill="#000000" font-family="sans-serif" font-size="13" lengthAdjust="spacing" textLength="81" x="611" y="73.5669">EbMS/HTTPS</text><!--MD5=[519f8ff8a7200772830e41c828520746]
link ebms to cloud--><path d="M328.38,62.34 C382.73,39.8 483.26,6 570,20.5 C618.04,28.53 670.56,48.18 705.3,62.82 " fill="none" id="ebms-to-cloud" style="stroke:#000000;stroke-width:1.0;"/><polygon fill="#000000" points="710.29,64.94,703.5744,57.7358,705.6891,62.9825,700.4424,65.0972,710.29,64.94" style="stroke:#000000;stroke-width:1.0;"/><text fill="#000000" font-family="sans-serif" font-size="13" lengthAdjust="spacing" textLength="81" x="488" y="23.5669">EbMS/HTTPS</text><!--MD5=[d0efa04790d44b23b62439fc951a6e3c]
@startuml
skinparam BackgroundColor transparent
skinparam componentStyle rectangle
skinparam compnentBackgroundColor #White
skinparam ArrowColor #Black

[Application] as app #White
[EbMS Adapter] as ebms #White
[Reverse Proxy] as proxy #White
cloud cloud as cloud #White

app <-ri-> ebms : SOAP/HTTP(S)
ebms <-ri- proxy : EbMS/HTTP(S)
proxy <-ri- cloud : EbMS/HTTPS
ebms -ri-> cloud : EbMS/HTTPS

@enduml

PlantUML version 1.2021.00(Sun Jan 10 11:25:05 CET 2021)
(GPL source distribution)
Java Runtime: OpenJDK Runtime Environment
JVM: OpenJDK 64-Bit Server VM
Default Encoding: UTF-8
Language: en
Country: US
--></g></svg>