<?xml version="1.0" encoding="UTF-8" standalone="no"?><svg xmlns="http://www.w3.org/2000/svg" xmlns:xlink="http://www.w3.org/1999/xlink" contentScriptType="application/ecmascript" contentStyleType="text/css" height="526px" preserveAspectRatio="none" style="width:489px;height:526px;background:#00000000;" version="1.1" viewBox="0 0 489 526" width="489px" zoomAndPan="magnify"><defs><filter height="300%" id="f83os1qpuonsx" width="300%" x="-1" y="-1"><feGaussianBlur result="blurOut" stdDeviation="2.0"/><feColorMatrix in="blurOut" result="blurOut2" type="matrix" values="0 0 0 0 0 0 0 0 0 0 0 0 0 0 0 0 0 0 .4 0"/><feOffset dx="4.0" dy="4.0" in="blurOut2" result="blurOut3"/><feBlend in="SourceGraphic" in2="blurOut3" mode="normal"/></filter></defs><g><!--MD5=[4541fb81c80c07473fe4b07432ef0971]
entity app--><rect fill="#FFFFFF" filter="url(#f83os1qpuonsx)" height="36.2969" style="stroke:#000000;stroke-width:1.5;" width="95" x="189.5" y="7"/><text fill="#000000" font-family="sans-serif" font-size="14" lengthAdjust="spacing" textLength="75" x="199.5" y="29.9951">Application</text><!--MD5=[e2307af040e3f87d22824e7603ca28ec]
entity api--><rect fill="#FFFFFF" filter="url(#f83os1qpuonsx)" height="36.2969" style="stroke:#000000;stroke-width:1.5;" width="101" x="186.5" y="120"/><text fill="#000000" font-family="sans-serif" font-size="14" lengthAdjust="spacing" textLength="81" x="196.5" y="142.9951">SOAP API(s)</text><!--MD5=[83db3a956f047a8da979fe8e300ee6f6]
entity ebmsC--><rect fill="#FFFFFF" filter="url(#f83os1qpuonsx)" height="36.2969" style="stroke:#000000;stroke-width:1.5;" width="120" x="7" y="237.5"/><text fill="#000000" font-family="sans-serif" font-size="14" lengthAdjust="spacing" textLength="100" x="17" y="260.4951">EbMS Client(s)</text><!--MD5=[cb8a28b58a74dd23255e7d8e0ce5b177]
entity ebmsS--><rect fill="#FFFFFF" filter="url(#f83os1qpuonsx)" height="36.2969" style="stroke:#000000;stroke-width:1.5;" width="125" x="346.5" y="237.5"/><text fill="#000000" font-family="sans-serif" font-size="14" lengthAdjust="spacing" textLength="105" x="356.5" y="260.4951">EbMS Server(s)</text><!--MD5=[7468467f3b6b392f1d176d828c753b77]
entity db--><path d="M195,243 C195,233 237,233 237,233 C237,233 279,233 279,243 L279,268.2969 C279,278.2969 237,278.2969 237,278.2969 C237,278.2969 195,278.2969 195,268.2969 L195,243 " fill="#FFFFFF" filter="url(#f83os1qpuonsx)" style="stroke:#000000;stroke-width:1.5;"/><path d="M195,243 C195,253 237,253 237,253 C237,253 279,253 279,243 " fill="none" style="stroke:#000000;stroke-width:1.5;"/><text fill="#000000" font-family="sans-serif" font-size="14" lengthAdjust="spacing" textLength="64" x="205" y="269.9951">EbMS DB</text><!--MD5=[b8126c81252de049c824a7564d46b033]
entity lb--><rect fill="#FFFFFF" filter="url(#f83os1qpuonsx)" height="36.2969" style="stroke:#000000;stroke-width:1.5;" width="117" x="308.5" y="355"/><text fill="#000000" font-family="sans-serif" font-size="14" lengthAdjust="spacing" textLength="97" x="318.5" y="377.9951">Load Balancer</text><!--MD5=[3a4d72efb1b53e1acbdd1189cccbc328]
entity cloud--><path d="M153.0949,477.0025 C155.4559,470.9034 161.1645,469.7045 165.2344,475.2158 C168.8758,467.321 173.116,466.3052 179.0803,473.0133 C183.3929,467.9926 189.1148,468.577 191.5918,475.0172 C196.1555,469.6672 201.4581,471.3916 204.0613,477.2067 C211.7778,479.4029 214.9459,486.3771 207.8015,492.2646 C213.7663,497.5768 213.5835,504.0086 205.605,507.2813 C203.0481,515.4294 197.9278,516.1932 191.7131,511.1266 C189.9015,518.1802 184.7965,518.2739 180.1711,513.9915 C175.0942,519.1223 168.1217,518.9871 165.8737,510.9255 C161.0728,516.9992 155.4492,513.7969 153.4313,508.0067 C144.9312,505.4799 144.2998,499.3327 149.5049,493.1772 C142.8642,487.2922 145.4472,479.7161 153.0949,477.0025 " fill="#FFFFFF" filter="url(#f83os1qpuonsx)" style="stroke:#000000;stroke-width:1.5;"/><text fill="#000000" font-family="sans-serif" font-size="14" lengthAdjust="spacing" textLength="38" x="159" y="495.9951">cloud</text><!--MD5=[a7d26c2f8cc5a6a8ad879278349a2334]
link app to api--><path d="M237,48.47 C237,67.74 237,95.34 237,114.59 " fill="none" id="app-api" style="stroke:#000000;stroke-width:1.0;"/><polygon fill="#000000" points="237,119.78,241,110.78,237,114.78,233,110.78,237,119.78" style="stroke:#000000;stroke-width:1.0;"/><polygon fill="#000000" points="237,43.34,233,52.34,237,48.34,241,52.34,237,43.34" style="stroke:#000000;stroke-width:1.0;"/><text fill="#000000" font-family="sans-serif" font-size="13" lengthAdjust="spacing" textLength="91" x="238" y="86.0669">SOAP/HTTP(S)</text><!--MD5=[1b9dbcfdb69d97b7ce5f2d963fc4ed75]
link api to db--><path d="M237,156.04 C237,174.86 237,205.43 237,227.51 " fill="none" id="api-to-db" style="stroke:#000000;stroke-width:1.0;"/><polygon fill="#000000" points="237,232.65,241,223.65,237,227.65,233,223.65,237,232.65" style="stroke:#000000;stroke-width:1.0;"/><text fill="#000000" font-family="sans-serif" font-size="13" lengthAdjust="spacing" textLength="31" x="238" y="199.0669">JDBC</text><!--MD5=[a1968b526ccad38c1ae3615e514994f8]
link ebmsC to db--><path d="M127.41,255.5 C147.83,255.5 170.31,255.5 189.57,255.5 " fill="none" id="ebmsC-to-db" style="stroke:#000000;stroke-width:1.0;"/><polygon fill="#000000" points="194.91,255.5,185.91,251.5,189.91,255.5,185.91,259.5,194.91,255.5" style="stroke:#000000;stroke-width:1.0;"/><text fill="#000000" font-family="sans-serif" font-size="13" lengthAdjust="spacing" textLength="31" x="145.5" y="248.5669">JDBC</text><!--MD5=[19e516c55a730ef8999f130e926a7dd4]
reverse link db to ebmsS--><path d="M284.37,255.5 C303.48,255.5 325.79,255.5 346.21,255.5 " fill="none" id="db-backto-ebmsS" style="stroke:#000000;stroke-width:1.0;"/><polygon fill="#000000" points="279.08,255.5,288.08,259.5,284.08,255.5,288.08,251.5,279.08,255.5" style="stroke:#000000;stroke-width:1.0;"/><text fill="#000000" font-family="sans-serif" font-size="13" lengthAdjust="spacing" textLength="31" x="297.25" y="248.5669">JDBC</text><!--MD5=[176da720e4529d90f3fa47bec768fcbd]
link ebmsC to cloud--><path d="M75.16,273.67 C94.32,313.97 142.28,414.87 165.29,463.27 " fill="none" id="ebmsC-to-cloud" style="stroke:#000000;stroke-width:1.0;"/><polygon fill="#000000" points="167.44,467.79,167.1808,457.9446,165.2898,463.276,159.9584,461.3849,167.44,467.79" style="stroke:#000000;stroke-width:1.0;"/><text fill="#000000" font-family="sans-serif" font-size="13" lengthAdjust="spacing" textLength="81" x="130" y="377.5669">EbMS/HTTPS</text><!--MD5=[a856b8956244a36caac8b0af4ca4a272]
reverse link ebmsS to lb--><path d="M401.05,278.37 C392.97,300.59 380.62,334.55 373.22,354.89 " fill="none" id="ebmsS-backto-lb" style="stroke:#000000;stroke-width:1.0;"/><polygon fill="#000000" points="402.8,273.54,395.9582,280.6245,401.0867,278.2373,403.4739,283.3658,402.8,273.54" style="stroke:#000000;stroke-width:1.0;"/><text fill="#000000" font-family="sans-serif" font-size="13" lengthAdjust="spacing" textLength="91" x="390" y="321.0669">EbMS/HTTP(S)</text><!--MD5=[ac3616ced3fdcd8b6c61ce813a962838]
reverse link lb to cloud--><path d="M334.63,393.87 C300.48,414.83 246.88,447.73 212.09,469.08 " fill="none" id="lb-backto-cloud" style="stroke:#000000;stroke-width:1.0;"/><polygon fill="#000000" points="339.11,391.12,329.3475,392.4211,334.8493,393.7365,333.5339,399.2383,339.11,391.12" style="stroke:#000000;stroke-width:1.0;"/><text fill="#000000" font-family="sans-serif" font-size="13" lengthAdjust="spacing" textLength="81" x="290" y="434.0669">EbMS/HTTPS</text><!--MD5=[50136bc39c7975c2a03e7cb0f473fc20]
@startuml
skinparam BackgroundColor transparent
skinparam componentStyle rectangle
skinparam compnentBackgroundColor #White
skinparam ArrowColor #Black

[Application] as app #white
[SOAP API(s)] as api #white
[EbMS Client(s)] as ebmsC #white
[EbMS Server(s)] as ebmsS #white
database "EbMS DB" as db #white
[Load Balancer] as lb #white
cloud cloud as cloud #white

app <- -> api : SOAP/HTTP(S)
api - -> db : JDBC
ebmsC -ri-> db : JDBC
ebmsS -le-> db : JDBC
ebmsC - -> cloud : EbMS/HTTPS
ebmsS <- - lb : EbMS/HTTP(S)
lb <- - cloud : EbMS/HTTPS

@enduml

PlantUML version 1.2021.00(Sun Jan 10 11:25:05 CET 2021)
(GPL source distribution)
Java Runtime: OpenJDK Runtime Environment
JVM: OpenJDK 64-Bit Server VM
Default Encoding: UTF-8
Language: en
Country: US
--></g></svg>