<?xml version="1.0" encoding="UTF-8" standalone="no"?><svg xmlns="http://www.w3.org/2000/svg" xmlns:xlink="http://www.w3.org/1999/xlink" contentScriptType="application/ecmascript" contentStyleType="text/css" height="178px" preserveAspectRatio="none" style="width:542px;height:178px;background:#00000000;" version="1.1" viewBox="0 0 542 178" width="542px" zoomAndPan="magnify"><defs><filter height="300%" id="fun16liinderr" width="300%" x="-1" y="-1"><feGaussianBlur result="blurOut" stdDeviation="2.0"/><feColorMatrix in="blurOut" result="blurOut2" type="matrix" values="0 0 0 0 0 0 0 0 0 0 0 0 0 0 0 0 0 0 .4 0"/><feOffset dx="4.0" dy="4.0" in="blurOut2" result="blurOut3"/><feBlend in="SourceGraphic" in2="blurOut3" mode="normal"/></filter></defs><g><!--MD5=[4541fb81c80c07473fe4b07432ef0971]
entity app--><rect fill="#FFFFFF" filter="url(#fun16liinderr)" height="36.2969" style="stroke:#000000;stroke-width:1.5;" width="95" x="7" y="12.6948"/><text fill="#000000" font-family="sans-serif" font-size="14" lengthAdjust="spacing" textLength="75" x="17" y="35.6899">Application</text><!--MD5=[ab93d03eb5d1bca5f8dca22e95b1f183]
entity ebms--><rect fill="#FFFFFF" filter="url(#fun16liinderr)" height="36.2969" style="stroke:#000000;stroke-width:1.5;" width="117" x="230" y="12.6948"/><text fill="#000000" font-family="sans-serif" font-size="14" lengthAdjust="spacing" textLength="97" x="240" y="35.6899">EbMS Adapter</text><!--MD5=[e937783d151d78c9e87fd4c0d99f7485]
entity proxy--><rect fill="#FFFFFF" filter="url(#fun16liinderr)" height="36.2969" style="stroke:#000000;stroke-width:1.5;" width="116" x="334.5" y="130.6948"/><text fill="#000000" font-family="sans-serif" font-size="14" lengthAdjust="spacing" textLength="96" x="344.5" y="153.6899">Forward Proxy</text><!--MD5=[3a4d72efb1b53e1acbdd1189cccbc328]
entity cloud--><path d="M473.5949,16.6973 C475.9559,10.5982 481.6645,9.3993 485.7344,14.9106 C489.3758,7.0158 493.616,6 499.5803,12.7081 C503.8929,7.6874 509.6148,8.2718 512.0918,14.712 C516.6555,9.362 521.9581,11.0864 524.5613,16.9015 C532.2778,19.0977 535.4459,26.0719 528.3015,31.9594 C534.2663,37.2716 534.0835,43.7033 526.105,46.9761 C523.5481,55.1242 518.4278,55.8879 512.2131,50.8214 C510.4015,57.875 505.2965,57.9686 500.6711,53.6862 C495.5942,58.8171 488.6217,58.6819 486.3737,50.6202 C481.5728,56.694 475.9492,53.4917 473.9313,47.7015 C465.4312,45.1747 464.7998,39.0275 470.0049,32.872 C463.3642,26.987 465.9472,19.4109 473.5949,16.6973 " fill="#FFFFFF" filter="url(#fun16liinderr)" style="stroke:#000000;stroke-width:1.5;"/><text fill="#000000" font-family="sans-serif" font-size="14" lengthAdjust="spacing" textLength="38" x="479.5" y="35.6899">cloud</text><!--MD5=[08fd1994e0aa798ec301ef10a82dacc4]
link app to ebms--><path d="M107.41,30.6948 C142.09,30.6948 187.63,30.6948 224.37,30.6948 " fill="none" id="app-ebms" style="stroke:#000000;stroke-width:1.0;"/><polygon fill="#000000" points="229.72,30.6948,220.72,26.6948,224.72,30.6948,220.72,34.6948,229.72,30.6948" style="stroke:#000000;stroke-width:1.0;"/><polygon fill="#000000" points="102.14,30.6948,111.14,34.6948,107.14,30.6948,111.14,26.6948,102.14,30.6948" style="stroke:#000000;stroke-width:1.0;"/><text fill="#000000" font-family="sans-serif" font-size="13" lengthAdjust="spacing" textLength="91" x="120.5" y="23.7617">SOAP/HTTP(S)</text><!--MD5=[407f54e48e02a7a4052bbf409ce60390]
reverse link ebms to cloud--><path d="M352.65,30.6948 C389.45,30.6948 434.18,30.6948 464.33,30.6948 " fill="none" id="ebms-backto-cloud" style="stroke:#000000;stroke-width:1.0;"/><polygon fill="#000000" points="347.28,30.6948,356.28,34.6948,352.28,30.6948,356.28,26.6948,347.28,30.6948" style="stroke:#000000;stroke-width:1.0;"/><text fill="#000000" font-family="sans-serif" font-size="13" lengthAdjust="spacing" textLength="81" x="365.25" y="23.7617">EbMS/HTTPS</text><!--MD5=[d06aa6fb8107f4d429d5f32be91b7c45]
link ebms to proxy--><path d="M303.85,48.8148 C322.43,69.5448 353.73,104.4548 373.74,126.7648 " fill="none" id="ebms-to-proxy" style="stroke:#000000;stroke-width:1.0;"/><polygon fill="#000000" points="377.09,130.5048,374.0604,121.1335,373.7523,126.7819,368.1038,126.4738,377.09,130.5048" style="stroke:#000000;stroke-width:1.0;"/><text fill="#000000" font-family="sans-serif" font-size="13" lengthAdjust="spacing" textLength="81" x="351.5" y="96.7617">EbMS/HTTPS</text><!--MD5=[c669152d19a39ac297b1c575d330da71]
reverse link cloud to proxy--><path d="M475.78,57.8848 C464.4,70.8748 450.35,86.7248 437.5,100.6948 C428.32,110.6748 417.86,121.6248 409.34,130.4448 " fill="none" id="cloud-backto-proxy" style="stroke:#000000;stroke-width:1.0;"/><polygon fill="#000000" points="479.22,53.9548,470.2754,58.0771,475.9204,57.7115,476.2861,63.3565,479.22,53.9548" style="stroke:#000000;stroke-width:1.0;"/><text fill="#000000" font-family="sans-serif" font-size="13" lengthAdjust="spacing" textLength="81" x="453.5" y="96.7617">EbMS/HTTPS</text><!--MD5=[462356b0aec16fb1af5e68039ca4500b]
@startuml
skinparam BackgroundColor transparent
skinparam componentStyle rectangle
skinparam compnentBackgroundColor #White
skinparam ArrowColor #Black

[Application] as app #White
[EbMS Adapter] as ebms #White
[Forward Proxy] as proxy #White
cloud cloud as cloud #White

app <-ri-> ebms : SOAP/HTTP(S)
ebms <-ri- cloud : EbMS/HTTPS
ebms -do-> proxy : EbMS/HTTPS
proxy -up-> cloud : EbMS/HTTPS

@enduml

PlantUML version 1.2021.00(Sun Jan 10 11:25:05 CET 2021)
(GPL source distribution)
Java Runtime: OpenJDK Runtime Environment
JVM: OpenJDK 64-Bit Server VM
Default Encoding: UTF-8
Language: en
Country: US
--></g></svg>