<?xml version="1.0" encoding="us-ascii" standalone="no"?><svg xmlns="http://www.w3.org/2000/svg" xmlns:xlink="http://www.w3.org/1999/xlink" contentStyleType="text/css" height="453px" preserveAspectRatio="none" style="width:588px;height:453px;" version="1.1" viewBox="0 0 588 453" width="588px" zoomAndPan="magnify"><defs/><g><rect fill="none" height="105.6641" style="stroke:#000000;stroke-width:1.5;" width="547.5" x="10" y="133.4297"/><line style="stroke:#000000;stroke-width:0.5;stroke-dasharray:5.0,5.0;" x1="60" x2="60" y1="81.2969" y2="372.625"/><line style="stroke:#000000;stroke-width:0.5;stroke-dasharray:5.0,5.0;" x1="459.5" x2="459.5" y1="81.2969" y2="372.625"/><text fill="#000000" font-family="sans-serif" font-size="14" lengthAdjust="spacing" textLength="75" x="20" y="77.9951">Application</text><ellipse cx="60.5" cy="13.5" fill="#FFFFFF" rx="8" ry="8" style="stroke:#181818;stroke-width:0.5;"/><path d="M60.5,21.5 L60.5,48.5 M47.5,29.5 L73.5,29.5 M60.5,48.5 L47.5,63.5 M60.5,48.5 L73.5,63.5 " fill="none" style="stroke:#181818;stroke-width:0.5;"/><text fill="#000000" font-family="sans-serif" font-size="14" lengthAdjust="spacing" textLength="75" x="20" y="384.6201">Application</text><ellipse cx="60.5" cy="396.4219" fill="#FFFFFF" rx="8" ry="8" style="stroke:#181818;stroke-width:0.5;"/><path d="M60.5,404.4219 L60.5,431.4219 M47.5,412.4219 L73.5,412.4219 M60.5,431.4219 L47.5,446.4219 M60.5,431.4219 L73.5,446.4219 " fill="none" style="stroke:#181818;stroke-width:0.5;"/><rect fill="#FFFFFF" height="46.5938" rx="2.5" ry="2.5" style="stroke:#181818;stroke-width:0.5;" width="176" x="371.5" y="33.7031"/><text fill="#000000" font-family="sans-serif" font-size="14" lengthAdjust="spacing" textLength="97" x="411" y="53.6982">EbMS Adapter</text><text fill="#000000" font-family="sans-serif" font-size="14" lengthAdjust="spacing" textLength="162" x="378.5" y="69.9951">(EbMSMessageService)</text><rect fill="#FFFFFF" height="46.5938" rx="2.5" ry="2.5" style="stroke:#181818;stroke-width:0.5;" width="176" x="371.5" y="371.625"/><text fill="#000000" font-family="sans-serif" font-size="14" lengthAdjust="spacing" textLength="97" x="411" y="391.6201">EbMS Adapter</text><text fill="#000000" font-family="sans-serif" font-size="14" lengthAdjust="spacing" textLength="162" x="378.5" y="407.917">(EbMSMessageService)</text><path d="M337,96.2969 L337,121.2969 L581,121.2969 L581,106.2969 L571,96.2969 L337,96.2969 " fill="#FFFFFF" style="stroke:#181818;stroke-width:0.5;"/><path d="M571,96.2969 L571,106.2969 L581,106.2969 L571,96.2969 " fill="#FFFFFF" style="stroke:#181818;stroke-width:0.5;"/><text fill="#000000" font-family="sans-serif" font-size="13" lengthAdjust="spacing" textLength="223" x="343" y="113.3638">requires eventListener.type = DAO</text><path d="M10,133.4297 L87,133.4297 L87,140.5625 L77,150.5625 L10,150.5625 L10,133.4297 " fill="#EEEEEE" style="stroke:#000000;stroke-width:1.5;"/><rect fill="none" height="105.6641" style="stroke:#000000;stroke-width:1.5;" width="547.5" x="10" y="133.4297"/><text fill="#000000" font-family="sans-serif" font-size="13" font-weight="bold" lengthAdjust="spacing" textLength="32" x="25" y="146.4966">loop</text><text fill="#000000" font-family="sans-serif" font-size="11" font-weight="bold" lengthAdjust="spacing" textLength="34" x="102" y="145.6401">[poll]</text><polygon fill="#000000" points="447.5,167.6953,457.5,171.6953,447.5,175.6953,451.5,171.6953" style="stroke:#000000;stroke-width:1.0;"/><line style="stroke:#000000;stroke-width:1.0;" x1="60.5" x2="453.5" y1="171.6953" y2="171.6953"/><text fill="#000000" font-family="sans-serif" font-size="13" lengthAdjust="spacing" textLength="375" x="67.5" y="166.6294">getUnprocessedMessageEvents(filter, eventTypes, maxNr)</text><polygon fill="#000000" points="71.5,227.0938,61.5,231.0938,71.5,235.0938,67.5,231.0938" style="stroke:#000000;stroke-width:1.0;"/><line style="stroke:#000000;stroke-width:1.0;stroke-dasharray:2.0,2.0;" x1="65.5" x2="458.5" y1="231.0938" y2="231.0938"/><text fill="#000000" font-family="sans-serif" font-size="13" lengthAdjust="spacing" textLength="80" x="77.5" y="195.7622">List&lt;event&gt;</text><text fill="#000000" font-family="sans-serif" font-size="13" lengthAdjust="spacing" textLength="159" x="77.5" y="210.895">(RECEIVED | DELIVERED |</text><text fill="#000000" font-family="sans-serif" font-size="13" lengthAdjust="spacing" textLength="114" x="77.5" y="226.0278">FAILED | EXPIRED)</text><polygon fill="#000000" points="447.5,263.2266,457.5,267.2266,447.5,271.2266,451.5,267.2266" style="stroke:#000000;stroke-width:1.0;"/><line style="stroke:#000000;stroke-width:1.0;" x1="60.5" x2="453.5" y1="267.2266" y2="267.2266"/><text fill="#000000" font-family="sans-serif" font-size="13" lengthAdjust="spacing" textLength="216" x="67.5" y="262.1606">getMessage(messageId, process)</text><polygon fill="#000000" points="71.5,292.3594,61.5,296.3594,71.5,300.3594,67.5,296.3594" style="stroke:#000000;stroke-width:1.0;"/><line style="stroke:#000000;stroke-width:1.0;stroke-dasharray:2.0,2.0;" x1="65.5" x2="458.5" y1="296.3594" y2="296.3594"/><text fill="#000000" font-family="sans-serif" font-size="13" lengthAdjust="spacing" textLength="59" x="77.5" y="291.2935">message</text><polygon fill="#000000" points="447.5,321.4922,457.5,325.4922,447.5,329.4922,451.5,325.4922" style="stroke:#000000;stroke-width:1.0;"/><line style="stroke:#000000;stroke-width:1.0;" x1="60.5" x2="453.5" y1="325.4922" y2="325.4922"/><text fill="#000000" font-family="sans-serif" font-size="13" lengthAdjust="spacing" textLength="223" x="67.5" y="320.4263">processMessageEvent(messageId)</text><polygon fill="#000000" points="71.5,350.625,61.5,354.625,71.5,358.625,67.5,354.625" style="stroke:#000000;stroke-width:1.0;"/><line style="stroke:#000000;stroke-width:1.0;stroke-dasharray:2.0,2.0;" x1="65.5" x2="458.5" y1="354.625" y2="354.625"/><text fill="#000000" font-family="sans-serif" font-size="13" lengthAdjust="spacing" textLength="15" x="77.5" y="349.5591">ok</text><!--SRC=[XP3DRi8m48JlVeeLN422FW1gaG99fKY18kZVWOj95cgHsExQq5RgmtSTqlBJ0uSejdVccx7TLcahILOmalbsGsQdYx4f3O4dgHsFK7lX_bGHaVau2DgZaYsdizmRkiIqNzwKnnFLJ99NkR9I-wlQgV5uLRJ0zntg73Erva_Zo521TDPHo50D8cjBbKklZ0RfG5ehxB4Dj9BLP05H8Qr7MkfEs4xGERd11T9UvTXj1H-kAYU4vcvWzaZr7WP0t4CHydpFRvOfvr4ZtVWlYt07SVGWH6cC1MlAKa18X_xmrxn1_wGjcPppi6XIam1odRKgkL3lm7radEj19J-dr6LCxUypAF06469lQ-6GRp1FnadwdCJm3N6IyMeUrajz7wLPVPgypb8-wmhK1R_IPQMcHwSw_DEY1qr7Tfm7Dv9BI2C_lT2HzWzYjk87]--></g></svg>